<?xml version="1.0" encoding="utf-8"?>
<!-- Generator: Adobe Illustrator 28.0.0, SVG Export Plug-In . SVG Version: 6.00 Build 0)  -->
<svg version="1.1" id="Capa_1" xmlns="http://www.w3.org/2000/svg" xmlns:xlink="http://www.w3.org/1999/xlink" x="0px" y="0px"
	 viewBox="0 0 1000 1000" style="enable-background:new 0 0 1000 1000;" xml:space="preserve">
<style type="text/css">
	.st0{fill:#A91916;}
	.st1{fill:#1D1D1B;}
	.st2{fill:#0A0A0A;}
	.st3{fill:#FFFFFF;}
</style>
<g>
	<path class="st0" d="M827.9,929.28c-8.02-8.45-14.43-17.83-18.95-28c-9.18-20.27-11.89-42.99-13.39-66.41
		c-1.48-23.45-1.86-47.71-3.57-72.24c-0.74-12.29-2.06-24.61-3.46-36.98c-1.55-12.37-3.59-24.71-5.96-37.04
		c-1.22-6.16-2.6-12.28-4.1-18.39c-1.49-6.07-3.02-12.18-5.03-18.56c-3.8-12.58-8.87-24.84-14.98-36.55
		c-6.12-11.7-13.36-22.85-21.69-33.04c-8.25-10.25-17.4-19.73-27.45-28.01c-19.99-16.7-42.69-29.38-66.41-37.94
		c-11.89-4.23-23.98-7.63-36.25-9.85c-6.58-1.18-13.19-2.15-19.81-2.75c19.68-11.34,38.86-23.64,57.33-37.09
		c31.75-23.65,61.63-50.58,86.34-82.26c12.26-15.87,23.27-32.8,32.56-50.67c2.21-4.53,4.57-8.98,6.63-13.58l5.92-13.91l4.98-14.28
		c1.56-4.79,2.8-9.68,4.21-14.51c10.35-38.95,11.57-79.89,4.71-118.81c-1.5-9.78-4.03-19.33-6.28-28.89
		c-2.87-9.4-5.21-18.94-8.86-28.04c-6.31-18.52-14.87-36.11-23.69-53.36c2.95,9.26,6.4,18.29,8.89,27.64l4.06,13.87
		c1.25,4.64,2.27,9.35,3.42,14.01c2.41,9.29,3.89,18.77,5.75,28.12c1.25,9.47,2.79,18.86,3.3,28.34c3.5,37.77-0.7,75.7-11.92,111.08
		c-11.42,35.38-30.24,68.04-54.05,96.7c-23.52,28.95-51.76,54.19-82.28,76.37c-30.23,22.66-63.12,41.93-96.88,59.57
		c-17.26,9.13-34.9,17.55-52.78,25.54l0.19-29.36l-0.76-112.97c-0.75-37.66-1.03-75.31-2.3-112.97c-2.02-75.31-5-150.63-10.7-225.94
		c-5.7,75.31-8.67,150.63-10.7,225.94c-1.27,37.66-1.55,75.31-2.3,112.97L450.9,500l0.26,41.09c-8.17,3.44-16.36,6.83-24.58,10.18
		c-71.39,28.14-145.05,51.36-220.24,70.29c38.7-3.46,77-10.51,115.03-18.73c37.95-8.62,75.62-18.85,112.59-31.47
		c5.81-1.93,11.59-3.95,17.35-6.01l0.3,47.62c0.77,37.66,1.01,75.31,2.29,112.97c2.02,75.31,5.01,150.63,10.74,225.94
		c5.73-75.31,8.72-150.63,10.74-225.94c1.28-37.66,1.52-75.31,2.29-112.97l0.37-57.66c21.85-8.61,43.4-18.07,64.64-28.28
		c12.84-6.33,25.55-13.01,38.06-20.06c19.06,7.32,37.07,16.21,53.92,26.46c20.05,12.2,38.3,26.51,53.74,42.92
		c15.35,16.48,28.06,34.89,37.08,55.04c2.47,4.92,4.3,10.17,6.38,15.26c1.71,5.27,3.64,10.44,4.99,15.84
		c1.58,5.2,2.94,10.87,4.27,16.58c1.37,5.67,2.43,11.41,3.7,17.12c4.69,22.91,8.03,46.2,11,69.9c2.98,23.71,5.48,47.88,9.94,72.54
		c2.34,12.3,5.12,24.78,9.42,37.06c4.21,12.26,9.96,24.36,17.7,35.12c7.71,10.76,17.46,19.98,28.39,26.64
		c10.86,6.79,22.54,11.47,34.47,14.43C845.52,945.07,835.92,937.72,827.9,929.28z"/>
	<path class="st0" d="M217.15,630.91c-7.07-3.55-14.65-5.59-22.24-6.7c0.01-0.01,0.03-0.02,0.04-0.03c2.79-2.63,5.36-5.53,8.01-8.3
		c2.37-3.1,5-5.9,7.09-9.24c4.55-6.29,7.97-13.57,10.23-21.09c1.99-7.51,2.96-15.91-0.23-23c-0.75,7.46-3.85,13.84-7.54,19.66
		c-1.75,2.95-3.86,5.7-6.04,8.34l-3.31,3.94l-3.56,3.76c-2.3,2.53-4.97,4.82-7.4,7.23l-7.88,6.84l-8.19,6.56
		c-2.84,2.08-5.66,4.19-8.43,6.36l-23.47,18.4l29.38-3.59c6.02-0.74,13.06-0.98,19.55-0.65c6.57,0.39,13.11,1.21,19.25,3.1
		c6.15,1.84,12,4.56,16.92,8.88c5.06,4.2,8.88,10.04,12.01,16.71c0.21-7.32-1.79-15.06-6.19-21.71
		C230.76,639.74,224.27,634.43,217.15,630.91z"/>
</g>
</svg>
